<?xml version="1.0" standalone="no"?>
<!DOCTYPE svg PUBLIC "-//W3C//DTD SVG 20010904//EN"
 "http://www.w3.org/TR/2001/REC-SVG-20010904/DTD/svg10.dtd">
<svg version="1.0" xmlns="http://www.w3.org/2000/svg"
 width="308.000000pt" height="164.000000pt" viewBox="0 0 308.000000 164.000000"
 preserveAspectRatio="xMidYMid meet">

<g transform="translate(0.000000,164.000000) scale(0.100000,-0.100000)"
fill="#000000" stroke="none">
<path d="M586 1624 c-60 -22 -101 -58 -130 -116 l-26 -52 0 -599 c0 -426 3
-611 12 -638 15 -52 68 -113 121 -138 43 -21 50 -21 978 -21 886 0 936 1 975
19 51 23 108 90 123 144 9 30 11 213 9 654 l-3 611 -30 43 c-35 50 -82 84
-134 99 -23 6 -365 10 -946 9 -764 0 -916 -3 -949 -15z m1834 -113 c0 -14
-858 -856 -877 -859 -10 -3 -171 152 -444 424 -236 236 -429 432 -429 436 0 5
394 8 875 8 512 0 875 -4 875 -9z m-1501 -1027 l-305 -305 -25 19 -24 20 -3
619 -2 618 332 -332 333 -333 -306 -306z m1601 -255 c-6 -10 -22 -27 -36 -36
l-26 -16 -301 301 -302 302 335 335 335 335 3 -600 c1 -403 -1 -607 -8 -621z
m-1100 366 c64 -65 112 -105 125 -105 12 0 59 39 120 100 55 55 104 100 110
100 11 0 515 -501 515 -512 0 -5 -341 -8 -757 -8 l-758 0 265 265 c146 146
267 265 270 265 3 0 52 -47 110 -105z"/>
</g>
</svg>
